<?xml version="1.0" standalone="no"?>
<!DOCTYPE svg PUBLIC "-//W3C//DTD SVG 20010904//EN"
 "http://www.w3.org/TR/2001/REC-SVG-20010904/DTD/svg10.dtd">
<svg version="1.0" xmlns="http://www.w3.org/2000/svg"
 width="725.000000pt" height="309.000000pt" viewBox="0 0 725.000000 309.000000"
 preserveAspectRatio="xMidYMid meet">

<defs>
    <linearGradient id="naranjaAmarillo" x1="0" y1="1" x2="0" y2="0">
        <stop offset="0%" stop-color="#FF6A00" /> <!-- Naranja -->
        <stop offset="100%" stop-color="#FFD600" /> <!-- Amarillo -->
    </linearGradient>
    <linearGradient id="electricBeam" x1="-100%" y1="0%" x2="0%" y2="0%">
        <stop offset="0%" stop-color="#FFD600" />
        <stop offset="40%" stop-color="#FFD600" />
        <stop offset="50%" stop-color="#ffffff">
            <animate attributeName="stop-color" values="#ffffff;#fffbcc;#ffffff" dur="0.2s" repeatCount="indefinite" />
        </stop>
        <stop offset="60%" stop-color="#FFD600" />
        <stop offset="100%" stop-color="#FFD600" />
        <animate attributeName="x1" values="-100%; 200%" dur="3s" repeatCount="indefinite" />
        <animate attributeName="x2" values="0%; 300%" dur="3s" repeatCount="indefinite" />
    </linearGradient>
</defs>

<g transform="translate(0.000000,309.000000) scale(0.100000,-0.100000)"
fill="url(#naranjaAmarillo)" stroke="url(#electricBeam)" stroke-width="40">
<path d="M5571 1883 c-28 -78 -38 -127 -52 -261 -9 -85 -9 -115 0 -126 9 -11
6 -18 -18 -35 l-30 -22 -15 34 c-8 19 -19 38 -25 42 -8 4 -1 20 22 48 51 62
54 93 16 145 -24 33 -37 42 -60 42 -40 0 -141 -43 -213 -91 -65 -44 -66 -44
-66 -26 0 26 -67 87 -95 87 -46 0 -104 -22 -110 -42 -4 -10 -15 -22 -25 -28
-15 -8 -23 -3 -44 25 -33 43 -71 46 -115 9 l-31 -26 -35 31 c-35 30 -36 31
-72 16 -35 -15 -36 -15 -74 20 -24 21 -45 32 -54 29 -8 -4 -25 -28 -36 -55
-12 -27 -25 -49 -30 -49 -5 0 -15 13 -23 29 -24 45 -69 53 -146 26 -41 -14
-44 -14 -57 5 -20 29 -93 27 -159 -4 l-51 -24 -26 30 c-45 50 -67 37 -102 -59
-16 -46 -33 -83 -37 -83 -4 0 -10 10 -13 23 -14 45 -57 96 -91 107 -50 17 -91
3 -146 -48 -26 -25 -50 -43 -51 -41 -2 2 -14 19 -26 37 -26 37 -68 62 -105 62
-14 0 -37 13 -54 30 -17 17 -41 30 -55 30 -19 0 -26 -8 -36 -40 -6 -22 -15
-40 -19 -40 -4 0 -19 14 -34 30 -18 20 -36 30 -55 30 -32 0 -153 -55 -219
-100 l-43 -28 -34 41 c-32 39 -38 42 -81 41 -66 -1 -121 -43 -163 -124 -51
-96 -44 -169 24 -231 40 -38 66 -49 111 -49 36 0 40 -2 34 -22 -5 -19 -2 -21
26 -15 36 7 39 2 15 -26 -17 -20 -17 -20 2 -12 11 4 31 9 45 10 53 6 175 62
265 121 l21 14 -4 -148 c-2 -81 -2 -156 0 -167 3 -18 6 -16 21 10 l17 30 -6
-42 c-4 -26 -3 -43 3 -43 16 0 70 129 94 223 l21 87 34 0 c48 0 78 14 128 60
l45 41 14 -28 c9 -15 29 -41 47 -58 27 -26 38 -30 90 -30 46 0 65 5 90 23 l32
24 14 -21 c8 -11 21 -18 28 -15 10 4 12 -2 9 -21 l-5 -25 43 18 c39 16 49 28
85 96 43 82 123 175 109 126 -24 -85 -19 -122 26 -168 41 -42 93 -44 138 -6
l31 26 41 -37 c33 -30 47 -36 69 -31 20 3 30 1 32 -9 2 -11 12 -9 48 8 34 17
52 35 78 81 l34 58 37 -36 c44 -43 60 -44 99 -11 34 29 42 31 42 11 0 -28 43
-126 56 -126 7 0 14 -8 16 -18 4 -19 41 53 52 101 6 26 7 27 30 11 14 -8 27
-21 30 -29 7 -20 80 -37 121 -29 19 3 48 16 63 27 19 15 16 9 -10 -19 -21 -22
-38 -44 -38 -48 0 -5 17 -5 38 -1 l37 7 -25 -28 c-22 -24 -23 -26 -5 -20 11 4
36 9 55 12 41 5 166 63 263 122 37 22 67 36 67 31 0 -6 12 -26 28 -45 62 -78
163 -7 106 75 -15 21 -15 26 4 65 67 136 137 345 128 380 -7 27 -52 76 -70 76
-36 0 -81 -144 -55 -176 12 -14 14 -14 26 2 21 28 15 7 -30 -115 -45 -122 -67
-150 -67 -84 0 92 46 303 76 351 12 19 12 22 0 22 -8 0 -23 -25 -35 -57z m94
27 c3 -6 -1 -7 -9 -4 -18 7 -21 14 -7 14 6 0 13 -4 16 -10z m-2370 -176 c9
-10 13 -24 9 -36 -5 -17 -2 -19 30 -13 48 9 77 1 109 -31 52 -52 29 -143 -57
-222 -44 -41 -62 -49 -121 -54 -28 -3 -31 -7 -64 -113 -19 -60 -37 -112 -40
-115 -4 -3 -12 -16 -18 -30 -10 -22 -12 -15 -12 50 -1 108 21 227 74 407 26
87 49 161 52 166 7 11 20 8 38 -9z m-146 -13 c10 -6 12 -20 8 -46 -7 -42 -23
-65 -44 -65 -12 0 -14 7 -9 31 3 17 2 29 -2 27 -35 -16 -140 -83 -137 -88 2
-4 32 -14 67 -24 83 -23 91 -28 102 -59 13 -36 -6 -56 -113 -116 -103 -58
-142 -76 -198 -89 l-42 -10 59 56 c32 31 89 74 126 97 37 22 69 45 71 51 2 6
-22 16 -53 23 -90 20 -129 75 -84 116 32 29 183 104 210 105 14 0 31 -4 39 -9z
m1361 -11 c18 -18 18 -22 5 -67 -21 -69 -19 -71 21 -25 84 98 130 102 122 10
-5 -51 2 -60 25 -28 21 30 100 90 119 90 29 0 33 -47 10 -144 -11 -50 -26
-121 -32 -158 l-12 -68 -22 27 c-17 23 -21 40 -20 103 1 41 6 87 12 103 20 48
-3 29 -72 -58 -36 -47 -70 -85 -75 -85 -4 0 -16 9 -27 21 -17 19 -17 23 -2 82
9 34 14 64 11 67 -7 7 -56 -53 -118 -147 -49 -72 -86 -105 -102 -90 -8 8 35
173 67 257 16 41 34 87 39 103 12 32 24 34 51 7z m926 -6 c4 -17 0 -37 -12
-59 -23 -39 -40 -41 -38 -2 1 15 -1 27 -5 27 -15 -1 -142 -88 -135 -93 5 -2
34 -12 65 -21 64 -18 109 -49 109 -76 0 -10 -17 -32 -37 -48 -60 -46 -231
-133 -270 -137 l-36 -3 49 50 c27 27 80 68 118 91 38 24 71 47 73 53 2 6 -21
16 -54 23 -63 12 -103 42 -103 77 0 27 40 60 125 102 75 37 84 40 117 41 22 1
29 -5 34 -25z m-1506 -4 c6 -12 8 -30 5 -40 -8 -26 -4 -26 62 12 32 18 72 33
89 33 31 2 32 1 17 -21 -8 -13 -39 -41 -69 -64 -66 -50 -129 -127 -160 -197
-26 -58 -67 -94 -86 -75 -15 15 10 124 58 253 19 52 36 100 39 107 7 19 33 14
45 -8z m419 -14 c10 -12 6 -16 -21 -21 -57 -13 -103 -42 -156 -100 -45 -49
-80 -120 -67 -133 9 -9 74 49 121 109 88 111 88 111 107 104 22 -9 22 -32 -4
-117 -16 -51 -20 -85 -16 -124 l6 -54 -29 0 c-35 0 -50 23 -50 76 l0 37 -45
-42 c-55 -50 -86 -65 -118 -58 -24 7 -47 43 -47 75 0 28 45 116 79 155 71 80
207 133 240 93z m681 5 c0 -5 9 -7 20 -4 15 4 19 2 14 -10 -3 -9 7 -28 25 -46
40 -41 42 -96 5 -169 -33 -67 -82 -102 -142 -102 -54 0 -77 12 -97 50 -22 43
-18 88 14 155 32 67 74 112 117 125 39 11 44 11 44 1z m-2222 -38 c30 -33 24
-74 -16 -116 -32 -34 -92 -67 -122 -67 -16 0 -21 -5 -18 -22 5 -38 59 -28 137
26 51 35 68 42 73 31 18 -31 -128 -155 -181 -155 -36 0 -87 29 -100 56 -39 87
37 248 131 276 36 10 71 0 96 -29z m920 0 c29 -31 23 -74 -17 -116 -30 -33
-91 -67 -121 -67 -30 0 -27 -38 5 -46 26 -6 92 26 148 73 16 12 33 23 38 23
22 0 5 -32 -49 -88 -87 -90 -163 -104 -217 -40 -77 91 46 314 160 292 17 -3
40 -17 53 -31z m-558 -130 c0 -20 -3 -24 -11 -16 -7 7 -9 19 -6 27 10 24 17
19 17 -11z m2035 -33 c10 -11 24 -20 32 -20 25 0 13 -15 -40 -50 -70 -47 -69
-47 -47 2 11 24 20 53 20 66 0 27 11 28 35 2z m-2242 -27 c6 -6 -54 -53 -68
-53 -4 0 4 13 17 29 23 30 39 37 51 24z m2601 -35 c8 -13 5 -23 -14 -43 -47
-50 -102 -15 -65 41 19 29 61 30 79 2z"/>
<path d="M3278 1713 c-10 -2 -18 -9 -18 -14 0 -14 16 -11 30 6 7 8 11 14 9 14
-2 -1 -12 -3 -21 -6z"/>
<path d="M3319 1608 c-28 -24 -74 -154 -58 -164 15 -9 66 24 103 68 30 34 36
49 34 78 -2 29 -7 35 -28 38 -15 1 -36 -7 -51 -20z m41 -84 c-18 -21 -24 -10
-8 15 7 12 14 17 16 11 2 -6 -2 -17 -8 -26z"/>
<path d="M3037 1663 c4 -11 8 -13 11 -5 2 7 8 10 12 7 5 -3 11 -1 15 5 4 6 -5
10 -19 10 -20 0 -24 -4 -19 -17z"/>
<path d="M4591 1649 c-13 -10 -19 -19 -15 -19 13 1 48 29 43 34 -2 2 -15 -4
-28 -15z"/>
<path d="M5343 1693 c-14 -5 -18 -23 -5 -23 5 0 17 7 28 15 14 11 15 14 4 14
-8 0 -21 -3 -27 -6z"/>
<path d="M4977 1599 c-43 -50 -72 -131 -57 -160 27 -50 130 55 130 133 0 14
-8 36 -18 48 l-18 23 -37 -44z m33 -99 c-6 -12 -14 -19 -17 -17 -2 3 1 15 7
27 6 12 14 19 17 17 2 -3 -1 -15 -7 -27z"/>
<path d="M2708 1603 c-16 -19 -38 -58 -38 -67 0 -3 6 -6 14 -6 20 0 76 55 76
74 0 21 -33 20 -52 -1z"/>
<path d="M3621 1585 c-49 -57 -39 -72 20 -32 19 12 35 33 37 45 5 33 -21 27
-57 -13z"/>
<path d="M2095 1910 c-286 -49 -441 -82 -458 -99 -6 -6 -2 -14 12 -23 11 -7
21 -19 21 -26 0 -7 12 -17 28 -23 15 -7 37 -16 49 -22 12 -5 45 -7 73 -4 27 3
50 3 50 0 0 -3 -13 -51 -29 -107 -36 -125 -51 -204 -51 -272 0 -53 13 -78 24
-48 9 24 24 7 19 -23 l-4 -28 23 30 c13 17 32 39 44 50 25 23 42 63 123 280
l60 160 53 13 c121 31 234 64 262 76 17 8 40 18 51 22 16 7 13 9 -18 12 -37 3
-43 22 -6 22 10 0 19 5 19 10 0 6 -10 10 -22 10 -13 0 -66 2 -118 5 -66 3
-129 -2 -205 -15z m-176 -172 c-12 -43 -11 -57 2 -38 9 12 12 13 16 1 5 -11 7
-11 14 0 7 12 9 12 9 0 0 -11 4 -9 15 5 22 29 18 1 -9 -69 -13 -34 -38 -104
-56 -155 -22 -63 -44 -106 -67 -129 l-33 -36 4 70 c5 93 86 383 106 383 5 0 4
-15 -1 -32z"/>
<path d="M1662 1693 c-32 -27 -38 -68 -13 -89 16 -14 18 -21 8 -32 -7 -8 -22
-42 -35 -76 -71 -189 -92 -249 -92 -264 0 -10 17 -37 37 -60 43 -49 83 -57
107 -19 35 52 75 321 54 361 -8 15 -5 23 15 40 32 27 50 63 40 79 -45 74 -83
92 -121 60z m62 -19 c21 -20 20 -27 -3 -48 -42 -38 -93 3 -55 45 21 23 37 24
58 3z m-39 -177 c-2 -18 -6 -63 -9 -102 -6 -83 -41 -204 -62 -212 -9 -3 -26 0
-40 7 -35 19 -31 53 22 188 25 64 50 127 55 139 13 34 38 19 34 -20z"/>
<path d="M2135 1694 c-51 -28 -82 -63 -110 -126 -22 -49 -26 -71 -23 -115 4
-47 10 -59 48 -98 93 -95 184 -68 311 91 28 36 49 68 46 71 -4 3 0 15 8 27 22
31 18 42 -7 19 -40 -36 -47 -34 -25 6 29 52 15 63 -27 22 l-33 -32 -7 34 c-3
19 -21 51 -39 71 -38 45 -94 56 -142 30z m90 -16 c15 -6 24 -17 21 -25 -3 -7
0 -12 7 -10 22 4 20 -67 -4 -96 -22 -29 -107 -77 -134 -77 -23 0 -15 -44 8
-48 22 -4 90 30 142 72 55 45 71 36 33 -20 -37 -55 -109 -111 -153 -120 -42
-8 -98 18 -114 52 -39 87 42 261 129 277 14 2 28 5 32 6 4 0 19 -4 33 -11z"/>
<path d="M2158 1602 c-14 -15 -31 -37 -37 -49 -10 -19 -9 -23 4 -23 21 0 75
53 75 74 0 27 -16 26 -42 -2z"/>
</g>
</svg>